# xmcd
# 
# Track frame offsets:
#     150
#     14270
#     27410
#     40402
#     54382
#     68510
#     81730
#     95482
#     109102
#     122597
#     138297
#     152655
#     163480
#     178355
#     190547
#     204495
#     217420
#     231467
#     244952
#     259190
# 
# Disc length: 3611
# 
# Revision: 3
# Processed by: cddbd v1.5.2PL0 Copyright (c) Steve Scherf et al.
# Submitted via: fre:ac v1.0.17
# 
DISCID=2c0e1914
DTITLE=Various Artist - Classic Colletion Presents Volume 2
DYEAR=0
DGENRE=Blues
TTITLE0=Big Joe Williams - Stepfather Blues
TTITLE1=Leadbelly - My Baby Quit Me
TTITLE2=Billie Holiday - St. Louis Blues
TTITLE3=Kokomo Arnold - Backfence Picket Blues
TTITLE4=John Lee Hooker - Boogie Chillen
TTITLE5=Muddy Waters - Walkin Blues
TTITLE6=Mississippi John Hurt - Avalon Blues
TTITLE7=Leadbely - Roberta
TTITLE8=Ma Rainey - Night Time Blues
TTITLE9=Bessie Smith - Outside Of That
TTITLE10=John Lee Hooker - Sally Mae
TTITLE11=Lightning Hopkins - Short Haired Woman
TTITLE12=Billie Holiday - Georgia On My Mind
TTITLE13=Muddy Waters - I Cant Be Satisfied
TTITLE14=Blind Boy Fuller and Sonny Terry - Little Woman You're So Sweet
TTITLE15=Menphis Minnie - Jo Louis Strut
TTITLE16=Arthur 'Big Boy' Group - Raised To My Hand
TTITLE17=Lightning Hopkins - Katie May
TTITLE18=John Lee Hooker - Henry's Swing Club
TTITLE19=Muddy Waters - Your Gonna Miss Me
EXTD=
EXTT0=
EXTT1=
EXTT2=
EXTT3=
EXTT4=
EXTT5=
EXTT6=
EXTT7=
EXTT8=
EXTT9=
EXTT10=
EXTT11=
EXTT12=
EXTT13=
EXTT14=
EXTT15=
EXTT16=
EXTT17=
EXTT18=
EXTT19=
PLAYORDER=
